<svg width="164" height="71" viewBox="0 0 164 71" fill="none" xmlns="http://www.w3.org/2000/svg">
<g filter="url(#filter0_d_103_4510)">
<path d="M14.3513 57.0912C14.3513 55.9798 13.9699 55.0428 13.2181 54.2691C12.4662 53.4955 11.551 53.1142 10.4832 53.1142C9.51341 53.1142 8.67441 53.4192 7.96617 54.0403C7.26882 54.6505 6.83298 55.3914 6.66953 56.274H5.63441V53.2776H4V60.9048H5.63441V57.7995H6.66953C6.83298 58.7256 7.26882 59.5101 7.96617 60.1312C8.66351 60.7523 9.50251 61.0683 10.4832 61.0683C11.551 61.0683 12.4662 60.6869 13.2181 59.9133C13.9699 59.1506 14.3513 58.2026 14.3513 57.0912ZM12.7168 57.0912C12.7168 57.8104 12.4989 58.4096 12.0631 58.8782C11.6163 59.3576 11.0933 59.5973 10.4832 59.5973C9.87298 59.5973 9.34997 59.3576 8.91412 58.8782C8.46739 58.4096 8.24946 57.8104 8.24946 57.0912C8.24946 56.3721 8.46739 55.7728 8.91412 55.2934C9.34997 54.8248 9.87298 54.5851 10.4832 54.5851C11.0933 54.5851 11.6163 54.8248 12.0631 55.2934C12.4989 55.7728 12.7168 56.3721 12.7168 57.0912Z" fill="white"/>
<path d="M16.9603 53.2781V60.9054H18.5947V58.3993H20.1746C20.9591 58.3993 21.6129 58.1487 22.125 57.6583C22.6371 57.168 22.8986 56.5578 22.8986 55.8387C22.8986 55.1087 22.6371 54.5094 22.125 54.0082C21.602 53.5178 20.9591 53.2781 20.1746 53.2781H16.9603ZM20.1201 54.7491C20.447 54.7491 20.7194 54.858 20.9373 55.0651C21.1553 55.2721 21.2642 55.5336 21.2642 55.8387C21.2642 56.1438 21.1553 56.4053 20.9373 56.6123C20.7194 56.8193 20.447 56.9283 20.1201 56.9283H18.5947V54.7491H20.1201Z" fill="white"/>
<path d="M32.2618 60.9054V53.2781H30.8453L27.0862 58.1269V53.2781H25.4518V60.9054H26.8683L30.6274 56.0566V60.9054H32.2618Z" fill="white"/>
<path d="M34.3245 59.4344V62.4853H35.959V60.9054H40.5353V62.4853H42.1697V59.4344H41.2435V53.2781H35.959V55.6208C35.959 56.1329 35.9154 56.6123 35.8282 57.0591C35.741 57.5167 35.643 57.8763 35.5449 58.1487C35.4359 58.4102 35.3161 58.6499 35.1744 58.8787C35.0328 59.0966 34.9456 59.2383 34.8911 59.3036C34.8258 59.3581 34.7931 59.4126 34.7604 59.4344H34.3245ZM37.5934 55.6208V54.7491H39.6091V59.4344H36.3948L36.5256 59.3036C36.6018 59.2165 36.6999 59.0748 36.8197 58.8678C36.9396 58.6608 37.0486 58.4211 37.1684 58.1487C37.2883 57.8763 37.3863 57.5058 37.4626 57.0591C37.5498 56.6123 37.5934 56.1329 37.5934 55.6208Z" fill="white"/>
<path d="M51.3114 60.9054V53.2781H49.8949L46.1358 58.1269V53.2781H44.5014V60.9054H45.9178L49.677 56.0566V60.9054H51.3114Z" fill="white"/>
<path d="M55.8817 53.2781H54.2473V55.6208C54.2473 56.536 54.487 57.2443 54.9665 57.7455C55.4568 58.2576 56.1214 58.5082 56.9713 58.5082C57.7014 58.5082 58.3007 58.3666 58.7692 58.0724V60.9054H60.4036V53.2781H58.7692V56.4925L58.5839 56.6341C58.4641 56.7213 58.2789 56.8084 58.0282 56.9065C57.7776 56.9937 57.5161 57.0373 57.2437 57.0373C56.8079 57.0373 56.4701 56.9174 56.2304 56.6777C56.0016 56.4271 55.8817 56.0784 55.8817 55.6208V53.2781Z" fill="white"/>
<path d="M69.9856 53.2781H68.3512V56.329H65.0824V53.2781H63.448V60.9054H65.0824V57.8H68.3512V60.9054H69.9856V53.2781Z" fill="white"/>
<path d="M76.9549 57.691H75.1026L76.0288 55.1849L76.9549 57.691ZM77.4997 59.1075L78.1535 60.9054H79.8969L76.9004 53.2781H75.1571L72.1606 60.9054H73.904L74.5578 59.1075H77.4997Z" fill="white"/>
<path d="M87.0222 53.2781H85.3878V60.9054H87.0222V58.7262L88.0029 57.6365L90.2366 60.9054H92.1434L89.0925 56.438L91.9255 53.2781H90.0187L87.0222 56.6014V53.2781Z" fill="white"/>
<path d="M95.4614 57.0912C95.4614 56.3939 95.7012 55.7946 96.1806 55.3152C96.6491 54.8248 97.2266 54.5851 97.9131 54.5851C98.5995 54.5851 99.177 54.8248 99.6455 55.3152C100.125 55.7946 100.365 56.3939 100.365 57.0912C100.365 57.7995 100.125 58.3879 99.6455 58.8673C99.177 59.3576 98.5995 59.5973 97.9131 59.5973C97.2266 59.5973 96.6491 59.3576 96.1806 58.8673C95.7012 58.3879 95.4614 57.7995 95.4614 57.0912ZM93.7726 57.0912C93.7726 58.1808 94.1757 59.1288 94.9711 59.9024C95.7665 60.676 96.7472 61.0683 97.9131 61.0683C99.0789 61.0683 100.06 60.676 100.855 59.9024C101.65 59.1288 102.054 58.1808 102.054 57.0912C102.054 55.9907 101.65 55.0537 100.855 54.28C100.06 53.5064 99.0789 53.1142 97.9131 53.1142C96.7472 53.1142 95.7665 53.5064 94.9711 54.28C94.1757 55.0537 93.7726 55.9907 93.7726 57.0912Z" fill="white"/>
<path d="M108.748 56.6014L106.133 53.2781H104.662V60.9054H106.297V55.8387L108.748 58.9441L111.2 55.8169V60.9054H112.834V53.2781H111.385L108.748 56.6014Z" fill="white"/>
<path d="M122.359 53.2781H115.876V60.9054H117.511V54.7491H120.725V60.9054H122.359V53.2781Z" fill="white"/>
<path d="M129.33 57.691H127.477L128.404 55.1849L129.33 57.691ZM129.875 59.1075L130.528 60.9054H132.272L129.275 53.2781H127.532L124.536 60.9054H126.279L126.933 59.1075H129.875Z" fill="white"/>
<path d="M140.983 53.2781H139.349V56.329H136.08V53.2781H134.445V60.9054H136.08V57.8H139.349V60.9054H140.983V53.2781Z" fill="white"/>
<path d="M145.662 53.2781H144.027V60.9054H145.662V53.2781Z" fill="white"/>
<path d="M154.373 53.2781H150.995C150.232 53.2781 149.611 53.5178 149.121 53.9973C148.63 54.4767 148.38 55.076 148.38 55.7842C148.38 56.0893 148.434 56.3726 148.521 56.645C148.619 56.9174 148.728 57.1244 148.859 57.277C148.979 57.4295 149.11 57.5712 149.273 57.7019C149.426 57.8327 149.535 57.9198 149.6 57.9525C149.655 57.9743 149.709 58.007 149.742 58.0179L148.107 60.9054H149.851L151.322 58.2358H152.738V60.9054H154.373V53.2781ZM150.014 55.7842C150.014 55.4791 150.112 55.2394 150.308 55.0433C150.504 54.8472 150.755 54.7491 151.049 54.7491H152.738V56.7649H151.049C150.755 56.7649 150.504 56.6668 150.308 56.4816C150.112 56.2963 150.014 56.0566 150.014 55.7842Z" fill="white"/>
<path d="M8.98113 7.62939e-05H4V35.975H8.98113V22.6286C8.98113 20.3708 9.54273 18.5896 10.6659 17.3353C11.7891 16.0809 13.3274 15.4286 15.232 15.4286C16.8679 15.4286 18.2353 16.0307 19.3341 17.1847C20.4329 18.3638 20.9945 19.844 20.9945 21.6252V36.0001H26V21.6252C26 18.3137 25.0966 15.7046 23.2897 13.7478C21.4828 11.791 19.1143 10.8126 16.2331 10.8126C15.4029 10.8126 14.5727 10.913 13.7669 11.1388C12.9367 11.3645 12.2775 11.6154 11.7403 11.8914C11.2031 12.1673 10.6903 12.4684 10.2264 12.8196C9.76249 13.1708 9.44506 13.4217 9.29856 13.5722C9.15205 13.7227 9.02997 13.8231 8.98113 13.8983V7.62939e-05Z" fill="#F0145A"/>
<path d="M37.135 0H32V35.945H37.135V0Z" fill="white"/>
<path d="M67.4222 25.4178L67.6789 22.8503C67.6789 19.4098 66.5492 16.5342 64.2385 14.2235C61.9277 11.9127 59.0521 10.783 55.6117 10.783C52.1712 10.783 49.1929 12.0154 46.7281 14.4802C44.2633 16.945 43.0309 19.872 43.0309 23.3638C43.0309 26.9583 44.3147 30.0393 46.8308 32.6068C49.347 35.1743 52.3766 36.4581 55.8684 36.4581C57.2035 36.4581 58.4359 36.2527 59.6683 35.8932C60.9007 35.4824 61.9277 35.0716 62.6466 34.6608C63.4169 34.1987 64.1871 33.6852 64.8547 33.1203C65.5222 32.5555 65.9844 32.1447 66.1898 31.8879C66.3952 31.6312 66.5492 31.4771 66.6519 31.3231L63.3142 27.9853L62.5439 28.961C62.0304 29.5772 61.1575 30.1934 59.9251 30.8609C58.6413 31.5285 57.3062 31.8366 55.8684 31.8366C53.8658 31.8366 52.1712 31.2204 50.7334 29.9366C49.2956 28.6529 48.4227 27.1637 48.1659 25.4178H67.4222ZM55.6117 15.1478C57.5116 15.1478 59.0521 15.7126 60.3359 16.791C61.5683 17.9207 62.3385 19.3071 62.6466 21.053H48.3713C48.8335 19.3071 49.6551 17.9207 50.9388 16.791C52.1712 15.7126 53.7631 15.1478 55.6117 15.1478Z" fill="white"/>
<path d="M91.3712 34.4554C91.3712 36.7148 90.7037 38.5634 89.3172 40.0012C87.9821 41.3877 86.2876 42.1066 84.1822 42.1066C83.2579 42.1066 82.3336 41.9525 81.4607 41.6958C80.5877 41.439 79.9202 41.1309 79.3553 40.7715C78.7905 40.412 78.277 40.0526 77.7635 39.5904C77.3013 39.1283 76.9932 38.8202 76.8392 38.6661C76.6851 38.5121 76.5824 38.358 76.4797 38.2553L73.142 41.5931L73.5528 42.1066C73.8095 42.466 74.2717 42.9282 74.8879 43.4417C75.5041 43.9038 76.223 44.4173 77.0446 44.9308C77.8662 45.393 78.8932 45.8038 80.1769 46.1632C81.4607 46.5227 82.7958 46.7281 84.1822 46.7281C87.674 46.7281 90.5496 45.547 92.9631 43.1849C95.3252 40.7715 96.5062 37.8959 96.5062 34.404V11.2965H91.3712V13.864L90.4983 13.0938C89.9334 12.5803 89.0605 12.0668 87.8281 11.5533C86.5957 11.0398 85.2606 10.783 83.9255 10.783C80.7931 10.783 78.1229 11.9641 75.8122 14.3775C73.5014 16.791 72.3717 19.6666 72.3717 23.107C72.3717 26.5475 73.5014 29.4231 75.8122 31.8365C78.1229 34.25 80.7931 35.4311 83.9255 35.4311C84.7984 35.4311 85.62 35.3283 86.493 35.1229C87.3146 34.8662 87.9821 34.6094 88.547 34.3527C89.1118 34.0959 89.6253 33.7878 90.0875 33.4284C90.5496 33.0689 90.9091 32.8122 91.0118 32.7095L91.3712 32.35V34.4554ZM77.5067 23.107C77.5067 20.9503 78.1743 19.1531 79.5607 17.6639C80.9472 16.1748 82.5904 15.4045 84.439 15.4045C86.2876 15.4045 87.9308 16.1748 89.3172 17.6639C90.6523 19.1531 91.3712 20.9503 91.3712 23.107C91.3712 25.2637 90.6523 27.061 89.3172 28.5501C87.9308 30.0393 86.2876 30.8095 84.439 30.8095C82.5904 30.8095 80.9472 30.0393 79.5607 28.5501C78.1743 27.061 77.5067 25.2637 77.5067 23.107Z" fill="white"/>
<path d="M123.309 35.9446V20.026C123.309 17.4072 122.333 15.1991 120.433 13.4532C118.533 11.656 116.068 10.783 113.039 10.783C111.858 10.783 110.677 10.9371 109.547 11.2452C108.417 11.6046 107.493 11.9641 106.825 12.3749C106.158 12.7857 105.49 13.2478 104.874 13.8127C104.258 14.3262 103.898 14.6856 103.693 14.891C103.539 15.0964 103.385 15.2505 103.282 15.4045L106.62 18.7423L107.288 17.8693C107.698 17.3045 108.417 16.791 109.496 16.2261C110.574 15.6613 111.755 15.4045 113.039 15.4045C114.528 15.4045 115.76 15.8667 116.736 16.7396C117.712 17.6126 118.174 18.7423 118.174 20.026L109.188 21.5665C106.979 21.926 105.182 22.7989 103.95 24.1854C102.666 25.5719 101.999 27.2664 101.999 29.2691C101.999 31.169 102.82 32.8122 104.463 34.25C106.158 35.7392 108.212 36.4581 110.728 36.4581C111.601 36.4581 112.423 36.3554 113.244 36.0986C114.117 35.8932 114.785 35.6365 115.35 35.3797C115.914 35.123 116.428 34.8149 116.89 34.4554C117.352 34.096 117.66 33.8392 117.866 33.7365C118.02 33.5825 118.122 33.4284 118.174 33.3771V35.9446H123.309ZM111.498 31.8366C110.163 31.8366 109.085 31.5285 108.315 30.9123C107.493 30.2961 107.134 29.5772 107.134 28.7556C107.134 27.8826 107.39 27.1124 107.955 26.5475C108.52 25.9827 109.29 25.5719 110.215 25.4178L118.174 24.134V24.6475C118.174 26.9583 117.609 28.7042 116.428 29.988C115.247 31.2204 113.604 31.8366 111.498 31.8366Z" fill="white"/>
<path d="M134.64 -3.8147e-06H129.505V35.945H134.64V-3.8147e-06Z" fill="white"/>
<path d="M157.989 14.1208L157.681 13.7613C157.475 13.5559 157.167 13.2992 156.705 12.9397C156.243 12.5803 155.729 12.2722 155.165 11.9127C154.6 11.6046 153.829 11.3479 152.905 11.0911C151.981 10.8857 151.005 10.783 150.03 10.783C147.513 10.783 145.459 11.5019 143.816 12.9397C142.122 14.4289 141.3 16.0721 141.3 17.972C141.3 19.3585 141.608 20.4882 142.224 21.5152C142.841 22.4908 143.611 23.2097 144.586 23.6205C145.511 24.0827 146.538 24.5448 147.616 24.9043C148.694 25.2638 149.67 25.5719 150.646 25.8286C151.57 26.1367 152.34 26.4962 152.957 26.9583C153.573 27.4205 153.881 28.0367 153.881 28.7556C153.881 29.6799 153.521 30.4501 152.854 31.015C152.186 31.5285 151.159 31.8366 149.773 31.8366C148.643 31.8366 147.513 31.5285 146.435 31.015C145.357 30.4501 144.689 29.988 144.33 29.6285C144.022 29.2691 143.765 28.961 143.611 28.7556L140.273 32.0933L140.633 32.5555C140.889 32.8636 141.249 33.223 141.762 33.6338C142.327 34.096 142.943 34.5068 143.611 34.9176C144.33 35.3284 145.254 35.6878 146.332 35.9959C147.411 36.304 148.592 36.4581 149.773 36.4581C152.494 36.4581 154.754 35.6878 156.448 34.1987C158.143 32.7095 159.016 30.8609 159.016 28.7556C159.016 27.3691 158.708 26.1881 158.092 25.2638C157.475 24.2881 156.705 23.5692 155.729 23.107C154.805 22.5935 153.778 22.1827 152.7 21.8233C151.621 21.4638 150.646 21.1044 149.67 20.899C148.746 20.6422 147.976 20.2314 147.359 19.7693C146.743 19.3071 146.435 18.6909 146.435 17.972C146.435 17.3045 146.743 16.6883 147.411 16.1748C148.027 15.6613 148.9 15.4045 150.03 15.4045C150.851 15.4045 151.673 15.6099 152.443 15.9694C153.265 16.3288 153.829 16.6369 154.086 16.8937C154.343 17.1504 154.548 17.3558 154.651 17.4585L157.989 14.1208Z" fill="white"/>
</g>
<defs>
<filter id="filter0_d_103_4510" x="0" y="-3.8147e-06" width="163.016" height="70.4853" filterUnits="userSpaceOnUse" color-interpolation-filters="sRGB">
<feFlood flood-opacity="0" result="BackgroundImageFix"/>
<feColorMatrix in="SourceAlpha" type="matrix" values="0 0 0 0 0 0 0 0 0 0 0 0 0 0 0 0 0 0 127 0" result="hardAlpha"/>
<feOffset dy="4"/>
<feGaussianBlur stdDeviation="2"/>
<feComposite in2="hardAlpha" operator="out"/>
<feColorMatrix type="matrix" values="0 0 0 0 0 0 0 0 0 0 0 0 0 0 0 0 0 0 0.25 0"/>
<feBlend mode="normal" in2="BackgroundImageFix" result="effect1_dropShadow_103_4510"/>
<feBlend mode="normal" in="SourceGraphic" in2="effect1_dropShadow_103_4510" result="shape"/>
</filter>
</defs>
</svg>
